<svg width="455" height="310" viewBox="0 0 455 310" fill="none" xmlns="http://www.w3.org/2000/svg">
<path d="M455 0H0V309.267H455V0Z" fill="#2599C2"/>
<path d="M115.561 176.207V137.285C115.561 131.552 117.974 126.121 121.897 122.5C125.819 118.578 130.948 116.164 136.681 116.164H170.173V117.673H136.681C131.25 117.673 126.423 119.785 122.802 123.405C119.181 127.026 117.069 131.854 117.069 137.285V176.207H115.561ZM188.88 116.164H288.75V117.673H188.88V116.164ZM337.328 128.233C337.931 129.138 338.233 129.742 338.233 130.647C338.535 131.25 338.836 132.155 339.138 132.759L337.63 133.061C337.328 132.457 337.328 131.854 337.026 130.949C336.724 130.345 336.423 129.742 336.121 128.836L337.328 128.233ZM339.44 211.207V309.268H337.931V211.207H339.44ZM115.561 309.268V241.983H117.069V309.268H115.561Z" fill="white"/>
<path d="M179.526 54.3105C186.768 54.3105 193.406 57.3278 198.233 62.1554C203.061 66.983 206.078 73.6209 206.078 80.8623C206.078 81.4657 206.078 81.7674 206.078 82.3709L205.776 82.9743V83.8795C205.173 89.3105 194.311 108.923 186.466 122.5C183.75 127.63 181.337 131.854 180.13 134.267L179.526 135.474L178.923 134.267C177.716 131.854 175.302 127.63 172.285 122.5C164.742 108.923 153.88 89.3105 153.276 84.1812L152.975 82.9743C152.975 82.9743 152.975 82.6726 152.975 82.3709C152.975 81.7674 152.975 81.4657 152.975 80.8623C152.975 73.6209 155.992 66.983 160.819 62.1554C165.647 57.3278 172.285 54.3105 179.526 54.3105ZM197.328 63.3623C192.802 58.8364 186.466 55.8192 179.526 55.8192C172.587 55.8192 166.25 58.8364 161.725 63.3623C157.199 67.8881 154.483 73.9226 154.483 80.8623C154.483 81.4657 154.483 81.7674 154.483 82.3709C154.483 82.6726 154.483 83.2761 154.483 83.8795C155.087 88.7071 165.949 108.017 173.794 121.897C176.207 126.121 178.018 129.742 179.526 132.457C180.733 129.742 182.845 126.121 185.259 121.897C192.802 108.017 203.966 88.7071 204.268 83.8795C204.569 83.2761 204.569 82.6726 204.569 82.3709C204.569 81.7674 204.569 81.4657 204.569 80.8623C204.569 73.9226 201.854 67.8881 197.328 63.3623Z" fill="white"/>
<path d="M55.2158 175.302H130.043C132.457 175.302 134.871 176.509 136.38 178.017C138.19 179.828 139.095 181.94 139.095 184.655V233.535C139.095 236.25 138.19 238.362 136.38 240.172C134.871 241.681 132.457 242.888 130.043 242.888H87.802L59.4399 264.31V242.888H55.2158C52.802 242.888 50.3882 241.681 48.8796 240.172C47.0692 238.362 46.1641 236.25 46.1641 233.535V184.655C46.1641 181.94 47.0692 179.828 48.8796 178.017C50.3882 176.509 52.802 175.302 55.2158 175.302ZM130.043 176.81H55.2158C53.1037 176.81 51.2934 177.716 49.7848 179.224C48.2761 180.431 47.371 182.543 47.371 184.655V233.535C47.371 235.647 48.2761 237.759 49.7848 238.966C51.2934 240.474 53.1037 241.379 55.2158 241.379H60.9485V261.595L87.1985 241.379H87.802H130.043C132.155 241.379 133.966 240.474 135.474 238.966C136.983 237.759 137.888 235.647 137.888 233.535V184.655C137.888 182.543 136.983 180.431 135.474 179.224C133.966 177.716 132.155 176.81 130.043 176.81Z" fill="white"/>
<path d="M348.793 95.043C365.086 95.043 379.871 101.681 390.431 112.241C401.293 123.103 407.931 137.586 407.931 153.879C407.931 170.172 401.293 184.957 390.431 195.517C379.871 206.379 365.086 213.017 348.793 213.017C332.5 213.017 317.716 206.379 307.155 195.517C296.595 184.957 289.957 170.172 289.957 153.879H291.466C291.466 169.871 297.802 184.353 308.06 194.612C318.621 205.172 333.104 211.508 348.793 211.508C364.785 211.508 379.267 205.172 389.526 194.612C399.785 184.353 406.423 169.871 406.423 153.879C406.423 138.19 399.785 123.707 389.526 113.448C379.267 102.888 364.785 96.5516 348.793 96.5516V95.043Z" fill="white"/>
<path d="M345.172 154.785L280.904 131.25L281.206 130.647C284.827 120.992 290.258 112.242 297.499 105.302C304.741 98.0605 313.491 92.6295 323.146 89.3105L324.051 89.0088L346.68 155.086L345.172 154.785ZM282.715 130.647L344.266 152.673L323.146 90.8191C313.792 94.1381 305.344 99.5691 298.404 106.207C291.766 113.147 286.335 121.293 282.715 130.647Z" fill="#6CF8EE"/>
<path d="M184.354 148.75H270.949C271.854 148.75 272.458 149.052 273.061 149.655C273.664 150.259 274.268 151.164 274.268 152.069C274.268 152.974 273.664 153.879 273.061 154.483C272.458 155.086 271.854 155.388 270.949 155.388H184.354C183.449 155.388 182.544 155.086 181.94 154.483C181.337 153.879 181.035 152.974 181.035 152.069C181.035 151.164 181.337 150.259 181.94 149.655C182.544 149.052 183.449 148.75 184.354 148.75ZM270.949 150.259H184.354C183.751 150.259 183.449 150.259 182.846 150.862C182.544 151.164 182.544 151.466 182.544 152.069C182.544 152.672 182.544 152.974 182.846 153.276C183.449 153.879 183.751 153.879 184.354 153.879H270.949C271.251 153.879 271.854 153.879 272.156 153.276C272.458 152.974 272.759 152.672 272.759 152.069C272.759 151.466 272.458 151.164 272.156 150.862C271.854 150.259 271.251 150.259 270.949 150.259Z" fill="#C6FFFB"/>
<path d="M184.655 213.017H270.344C271.551 213.017 272.758 213.621 273.663 214.526C274.569 215.431 274.87 216.336 274.87 217.543V259.181C274.87 260.388 274.569 261.595 273.663 262.198C272.758 263.103 271.551 263.707 270.344 263.707H184.655C183.448 263.707 182.241 263.103 181.638 262.198C180.732 261.595 180.129 260.388 180.129 259.181V217.543C180.129 216.336 180.732 215.431 181.638 214.526C182.241 213.621 183.448 213.017 184.655 213.017ZM270.344 214.526H184.655C183.75 214.526 183.146 214.827 182.543 215.431C181.939 216.034 181.638 216.94 181.638 217.543V259.181C181.638 260.086 181.939 260.69 182.543 261.293C183.146 261.896 183.75 262.198 184.655 262.198H270.344C271.25 262.198 272.155 261.896 272.456 261.293C273.06 260.69 273.362 260.086 273.362 259.181V217.543C273.362 216.94 273.06 216.034 272.456 215.431C272.155 214.827 271.25 214.526 270.344 214.526Z" fill="white"/>
<path d="M182.543 214.224L227.5 240.474L272.155 213.922L273.06 215.129L227.5 241.983L181.939 215.431L182.543 214.224Z" fill="white"/>
<path d="M174.342 86.2382L174.255 86.1335L174.15 86.0462C172.736 84.8677 171.975 83.2084 171.975 80.8623C171.975 78.8723 172.703 77.1347 174.251 75.5868C175.434 74.4039 177.443 73.6123 179.526 73.6123C181.583 73.6123 183.567 74.3836 184.756 75.5412C186.148 77.225 187.078 78.9829 187.078 80.8623C187.078 83.0938 186.097 84.8431 184.802 86.1379L184.754 86.186L184.71 86.2382C183.548 87.6329 181.601 88.414 179.526 88.414C177.452 88.414 175.505 87.6329 174.342 86.2382Z" stroke="#6CF8EE" stroke-width="3"/>
<path fill-rule="evenodd" clip-rule="evenodd" d="M79.656 207.285C79.656 205.776 79.0525 204.267 78.1474 203.362C76.9405 202.155 75.7336 201.552 74.2249 201.552C72.4146 201.552 71.2077 202.155 70.0008 203.362C69.0956 204.267 68.4922 205.776 68.4922 207.285C68.4922 208.793 69.0956 210 70.0008 211.207C71.2077 212.112 72.4146 212.716 74.2249 212.716C75.7336 212.716 76.9405 212.112 78.1474 211.207C79.0525 210 79.656 208.793 79.656 207.285Z" fill="#6CF8EE"/>
<path fill-rule="evenodd" clip-rule="evenodd" d="M98.3632 207.285C98.3632 205.776 97.7598 204.267 96.5529 203.362C95.6477 202.155 94.1391 201.552 92.6305 201.552C91.1218 201.552 89.6132 202.155 88.708 203.362C87.8029 204.267 86.8977 205.776 86.8977 207.285C86.8977 208.793 87.8029 210 88.708 211.207C89.6132 212.112 91.1218 212.716 92.6305 212.716C94.1391 212.716 95.6477 212.112 96.5529 211.207C97.7598 210 98.3632 208.793 98.3632 207.285Z" fill="#6CF8EE"/>
<path fill-rule="evenodd" clip-rule="evenodd" d="M116.768 207.285C116.768 205.776 116.164 204.267 115.259 203.362C114.052 202.155 112.845 201.552 111.337 201.552C109.526 201.552 108.32 202.155 107.113 203.362C106.207 204.267 105.604 205.776 105.604 207.285C105.604 208.793 106.207 210 107.113 211.207C108.32 212.112 109.526 212.716 111.337 212.716C112.845 212.716 114.052 212.112 115.259 211.207C116.164 210 116.768 208.793 116.768 207.285Z" fill="#6CF8EE"/>
<path d="M346.077 219.655C346.91 219.655 347.586 218.98 347.586 218.146C347.586 217.313 346.91 216.638 346.077 216.638C345.244 216.638 344.568 217.313 344.568 218.146C344.568 218.98 345.244 219.655 346.077 219.655Z" fill="white"/>
<path d="M109.526 249.828C110.359 249.828 111.035 249.152 111.035 248.319C111.035 247.486 110.359 246.811 109.526 246.811C108.693 246.811 108.018 247.486 108.018 248.319C108.018 249.152 108.693 249.828 109.526 249.828Z" fill="white"/>
<path d="M346.077 229.31C346.91 229.31 347.586 228.635 347.586 227.802C347.586 226.968 346.91 226.293 346.077 226.293C345.244 226.293 344.568 226.968 344.568 227.802C344.568 228.635 345.244 229.31 346.077 229.31Z" fill="white"/>
<path d="M109.526 259.483C110.359 259.483 111.035 258.808 111.035 257.974C111.035 257.141 110.359 256.466 109.526 256.466C108.693 256.466 108.018 257.141 108.018 257.974C108.018 258.808 108.693 259.483 109.526 259.483Z" fill="white"/>
<path d="M346.077 238.664C346.91 238.664 347.586 237.988 347.586 237.155C347.586 236.322 346.91 235.646 346.077 235.646C345.244 235.646 344.568 236.322 344.568 237.155C344.568 237.988 345.244 238.664 346.077 238.664Z" fill="white"/>
<path d="M109.526 268.837C110.359 268.837 111.035 268.161 111.035 267.328C111.035 266.495 110.359 265.819 109.526 265.819C108.693 265.819 108.018 266.495 108.018 267.328C108.018 268.161 108.693 268.837 109.526 268.837Z" fill="white"/>
<path d="M355.43 219.655C356.264 219.655 356.939 218.98 356.939 218.146C356.939 217.313 356.264 216.638 355.43 216.638C354.597 216.638 353.922 217.313 353.922 218.146C353.922 218.98 354.597 219.655 355.43 219.655Z" fill="white"/>
<path d="M99.8699 249.828C100.703 249.828 101.379 249.152 101.379 248.319C101.379 247.486 100.703 246.811 99.8699 246.811C99.0368 246.811 98.3613 247.486 98.3613 248.319C98.3613 249.152 99.0368 249.828 99.8699 249.828Z" fill="white"/>
<path d="M355.43 229.31C356.264 229.31 356.939 228.635 356.939 227.802C356.939 226.968 356.264 226.293 355.43 226.293C354.597 226.293 353.922 226.968 353.922 227.802C353.922 228.635 354.597 229.31 355.43 229.31Z" fill="white"/>
<path d="M99.8699 259.483C100.703 259.483 101.379 258.808 101.379 257.974C101.379 257.141 100.703 256.466 99.8699 256.466C99.0368 256.466 98.3613 257.141 98.3613 257.974C98.3613 258.808 99.0368 259.483 99.8699 259.483Z" fill="white"/>
<path d="M355.43 238.664C356.264 238.664 356.939 237.988 356.939 237.155C356.939 236.322 356.264 235.646 355.43 235.646C354.597 235.646 353.922 236.322 353.922 237.155C353.922 237.988 354.597 238.664 355.43 238.664Z" fill="white"/>
<path d="M364.784 219.655C365.617 219.655 366.293 218.98 366.293 218.146C366.293 217.313 365.617 216.638 364.784 216.638C363.951 216.638 363.275 217.313 363.275 218.146C363.275 218.98 363.951 219.655 364.784 219.655Z" fill="white"/>
<path d="M90.5164 249.828C91.3496 249.828 92.0251 249.152 92.0251 248.319C92.0251 247.486 91.3496 246.811 90.5164 246.811C89.6832 246.811 89.0078 247.486 89.0078 248.319C89.0078 249.152 89.6832 249.828 90.5164 249.828Z" fill="white"/>
<path d="M364.784 229.31C365.617 229.31 366.293 228.635 366.293 227.802C366.293 226.968 365.617 226.293 364.784 226.293C363.951 226.293 363.275 226.968 363.275 227.802C363.275 228.635 363.951 229.31 364.784 229.31Z" fill="white"/>
<path d="M364.784 238.664C365.617 238.664 366.293 237.988 366.293 237.155C366.293 236.322 365.617 235.646 364.784 235.646C363.951 235.646 363.275 236.322 363.275 237.155C363.275 237.988 363.951 238.664 364.784 238.664Z" fill="white"/>
<path d="M374.138 219.655C374.971 219.655 375.646 218.98 375.646 218.146C375.646 217.313 374.971 216.638 374.138 216.638C373.304 216.638 372.629 217.313 372.629 218.146C372.629 218.98 373.304 219.655 374.138 219.655Z" fill="white"/>
<path d="M374.138 229.31C374.971 229.31 375.646 228.635 375.646 227.802C375.646 226.968 374.971 226.293 374.138 226.293C373.304 226.293 372.629 226.968 372.629 227.802C372.629 228.635 373.304 229.31 374.138 229.31Z" fill="white"/>
<path d="M383.491 210.301C384.324 210.301 385 209.626 385 208.793C385 207.96 384.324 207.284 383.491 207.284C382.658 207.284 381.982 207.96 381.982 208.793C381.982 209.626 382.658 210.301 383.491 210.301Z" fill="white"/>
<path d="M383.491 219.655C384.324 219.655 385 218.98 385 218.146C385 217.313 384.324 216.638 383.491 216.638C382.658 216.638 381.982 217.313 381.982 218.146C381.982 218.98 382.658 219.655 383.491 219.655Z" fill="white"/>
<path d="M383.491 229.31C384.324 229.31 385 228.635 385 227.802C385 226.968 384.324 226.293 383.491 226.293C382.658 226.293 381.982 226.968 381.982 227.802C381.982 228.635 382.658 229.31 383.491 229.31Z" fill="white"/>
<path d="M393.145 210.301C393.979 210.301 394.654 209.626 394.654 208.793C394.654 207.96 393.979 207.284 393.145 207.284C392.312 207.284 391.637 207.96 391.637 208.793C391.637 209.626 392.312 210.301 393.145 210.301Z" fill="white"/>
<path d="M393.145 219.655C393.979 219.655 394.654 218.98 394.654 218.146C394.654 217.313 393.979 216.638 393.145 216.638C392.312 216.638 391.637 217.313 391.637 218.146C391.637 218.98 392.312 219.655 393.145 219.655Z" fill="white"/>
<path d="M393.145 229.31C393.979 229.31 394.654 228.635 394.654 227.802C394.654 226.968 393.979 226.293 393.145 226.293C392.312 226.293 391.637 226.968 391.637 227.802C391.637 228.635 392.312 229.31 393.145 229.31Z" fill="white"/>
<path d="M402.499 210.301C403.332 210.301 404.007 209.626 404.007 208.793C404.007 207.96 403.332 207.284 402.499 207.284C401.666 207.284 400.99 207.96 400.99 208.793C400.99 209.626 401.666 210.301 402.499 210.301Z" fill="white"/>
<path d="M402.499 229.31C403.332 229.31 404.007 228.635 404.007 227.802C404.007 226.968 403.332 226.293 402.499 226.293C401.666 226.293 400.99 226.968 400.99 227.802C400.99 228.635 401.666 229.31 402.499 229.31Z" fill="white"/>
<path d="M411.852 210.301C412.686 210.301 413.361 209.626 413.361 208.793C413.361 207.96 412.686 207.284 411.852 207.284C411.019 207.284 410.344 207.96 410.344 208.793C410.344 209.626 411.019 210.301 411.852 210.301Z" fill="white"/>
<path d="M421.206 210.301C422.039 210.301 422.715 209.626 422.715 208.793C422.715 207.96 422.039 207.284 421.206 207.284C420.373 207.284 419.697 207.96 419.697 208.793C419.697 209.626 420.373 210.301 421.206 210.301Z" fill="white"/>
</svg>
