<svg width="40" height="40" viewBox="0 0 40 40" fill="none" xmlns="http://www.w3.org/2000/svg">
<rect width="39.9672" height="39.0984" rx="2" transform="matrix(-1 0 0 1 39.9668 0)" fill="#00B2F3" fill-opacity="0.1"/>
<path fill-rule="evenodd" clip-rule="evenodd" d="M19.4997 11.5833C17.82 11.5833 16.2091 12.2506 15.0213 13.4383C13.8336 14.6261 13.1663 16.237 13.1663 17.9167C13.1663 20.3693 14.7621 22.7492 16.5119 24.5962C17.3706 25.5026 18.232 26.2446 18.8795 26.7603C19.1206 26.9522 19.3311 27.112 19.4997 27.2366C19.6683 27.112 19.8788 26.9522 20.1198 26.7603C20.7674 26.2446 21.6288 25.5026 22.4875 24.5962C24.2372 22.7492 25.833 20.3693 25.833 17.9167C25.833 16.237 25.1658 14.6261 23.978 13.4383C22.7903 12.2506 21.1794 11.5833 19.4997 11.5833ZM19.4997 28.2083C19.0605 28.867 19.0603 28.8669 19.0601 28.8668L19.0578 28.8652L19.0526 28.8617L19.0344 28.8494C19.019 28.839 18.997 28.8239 18.9689 28.8045C18.9127 28.7655 18.8319 28.7088 18.73 28.6352C18.5264 28.4881 18.238 28.2734 17.8932 27.9989C17.2049 27.4507 16.285 26.6589 15.3625 25.6851C13.5497 23.7716 11.583 21.0057 11.583 17.9167C11.583 15.817 12.4171 13.8034 13.9017 12.3187C15.3864 10.8341 17.4 10 19.4997 10C21.5993 10 23.6129 10.8341 25.0976 12.3187C26.5823 13.8034 27.4163 15.817 27.4163 17.9167C27.4163 21.0057 25.4496 23.7716 23.6369 25.6851C22.7143 26.6589 21.7945 27.4507 21.1061 27.9989C20.7613 28.2734 20.473 28.4881 20.2693 28.6352C20.1675 28.7088 20.0867 28.7655 20.0304 28.8045C20.0023 28.8239 19.9803 28.839 19.9649 28.8494L19.9468 28.8617L19.9415 28.8652L19.9398 28.8664C19.9396 28.8665 19.9388 28.867 19.4997 28.2083ZM19.4997 28.2083L19.9388 28.867C19.6729 29.0443 19.326 29.044 19.0601 28.8668L19.4997 28.2083Z" fill="#00B2F3"/>
<path fill-rule="evenodd" clip-rule="evenodd" d="M19.4997 16.3333C18.6252 16.3333 17.9163 17.0422 17.9163 17.9167C17.9163 18.7911 18.6252 19.5 19.4997 19.5C20.3741 19.5 21.083 18.7911 21.083 17.9167C21.083 17.0422 20.3741 16.3333 19.4997 16.3333ZM16.333 17.9167C16.333 16.1678 17.7508 14.75 19.4997 14.75C21.2486 14.75 22.6663 16.1678 22.6663 17.9167C22.6663 19.6656 21.2486 21.0833 19.4997 21.0833C17.7508 21.0833 16.333 19.6656 16.333 17.9167Z" fill="#00B2F3"/>
</svg>
