<svg width="40" height="39" viewBox="0 0 40 39" fill="none" xmlns="http://www.w3.org/2000/svg">
<rect width="40" height="39" rx="2" transform="matrix(-1 0 0 1 40 0)" fill="#804DEA" fill-opacity="0.1"/>
<path d="M24.911 30C24.8321 30 24.7533 30 24.6744 30C22.1497 29.6522 19.6251 28.6957 17.495 27.2174C15.5226 25.8261 13.7869 23.913 12.5246 21.7391C11.1045 19.3913 10.2367 16.6087 10 13.8261C10 13.1304 10.1578 12.4348 10.5523 11.913C10.9467 11.3913 11.499 11.0435 12.1301 10.9565C12.209 10.9565 12.2879 10.9565 12.3668 10.9565H14.7337C15.9171 10.9565 16.9427 11.913 17.1005 13.2174C17.1794 14 17.3372 14.7826 17.5739 15.4783C17.8894 16.4348 17.6528 17.4783 17.0216 18.2609L16.4693 18.8696C17.4161 20.4348 18.5995 21.8261 20.0985 22.8696L20.6507 22.2609C21.2819 21.5652 22.3075 21.3043 23.1754 21.6522C23.8065 21.913 24.5166 22.087 25.2266 22.1739C26.41 22.3478 27.2779 23.4783 27.2779 24.7826V27.3913C27.2779 28.087 27.0412 28.7826 26.5678 29.2174C26.0945 29.6522 25.5422 30 24.911 30ZM14.7337 12.6957H12.3668C12.1301 12.6957 11.8935 12.8696 11.7357 13.0435C11.6568 13.2174 11.5779 13.3913 11.5779 13.6522C11.8146 16.1739 12.6035 18.6087 13.8658 20.7826C15.0492 22.7826 16.5482 24.5217 18.3628 25.7391C20.3352 27.1304 22.5442 28 24.8321 28.2609C25.1477 28.2609 25.3055 28.1739 25.4633 28C25.6211 27.8261 25.7 27.6522 25.7 27.3913V24.7826C25.7 24.3478 25.3844 24 24.9899 23.913C24.201 23.8261 23.412 23.5652 22.6231 23.2174C22.3075 23.1304 21.9919 23.1304 21.7553 23.3913L20.7296 24.5217C20.493 24.7826 20.0985 24.8696 19.7829 24.6957C17.6528 23.3913 15.9171 21.4783 14.7337 19.1304C14.6548 18.7826 14.7337 18.3478 14.9703 18.087L15.996 16.9565C16.1538 16.7826 16.2327 16.3478 16.1538 16.087C15.8382 15.2174 15.6804 14.3478 15.5226 13.4783C15.5226 13.0435 15.1281 12.6957 14.7337 12.6957ZM24.1221 18.7826C23.7276 18.7826 23.412 18.5217 23.3331 18.087C23.0965 16.6957 22.0708 15.6522 20.8085 15.3043C20.4141 15.2174 20.0985 14.7826 20.1774 14.2609C20.2563 13.8261 20.6507 13.4783 21.1241 13.5652C23.0176 14 24.5166 15.5652 24.8321 17.6522C24.911 18.087 24.6744 18.6087 24.201 18.6957C24.201 18.6957 24.201 18.7826 24.1221 18.7826ZM27.2779 18.6957C26.8834 18.6957 26.5678 18.3478 26.4889 17.913C26.1733 14.6957 23.8854 12.1739 20.8874 11.7391C20.493 11.6522 20.1774 11.2174 20.1774 10.7826C20.1774 10.3478 20.6507 10 21.0452 10C24.7532 10.4348 27.5934 13.5652 27.9879 17.6522C28.0668 18.087 27.7512 18.5217 27.2779 18.6087C27.3568 18.6957 27.2779 18.6957 27.2779 18.6957Z" fill="#804DEA"/>
</svg>
