<svg width="40" height="39" viewBox="0 0 40 39" fill="none" xmlns="http://www.w3.org/2000/svg">
<rect width="40" height="39" rx="2" transform="matrix(-1 0 0 1 40 0)" fill="#FFE7F7"/>
<path fill-rule="evenodd" clip-rule="evenodd" d="M13.167 13.9583C12.7334 13.9583 12.3753 14.3164 12.3753 14.75V24.25C12.3753 24.6836 12.7334 25.0417 13.167 25.0417H25.8337C26.2673 25.0417 26.6253 24.6836 26.6253 24.25V14.75C26.6253 14.3164 26.2673 13.9583 25.8337 13.9583H13.167ZM10.792 14.75C10.792 13.4419 11.8589 12.375 13.167 12.375H25.8337C27.1417 12.375 28.2087 13.4419 28.2087 14.75V24.25C28.2087 25.5581 27.1417 26.625 25.8337 26.625H13.167C11.8589 26.625 10.792 25.5581 10.792 24.25V14.75Z" fill="#FC13AD"/>
<path fill-rule="evenodd" clip-rule="evenodd" d="M10.9352 14.2956C11.1859 13.9374 11.6795 13.8503 12.0377 14.101L19.5004 19.3249L26.9631 14.101C27.3213 13.8503 27.8149 13.9374 28.0656 14.2956C28.3163 14.6538 28.2292 15.1474 27.871 15.3981L19.9544 20.9398C19.6818 21.1306 19.319 21.1306 19.0464 20.9398L11.1297 15.3981C10.7715 15.1474 10.6844 14.6538 10.9352 14.2956Z" fill="#FC13AD"/>
</svg>
