<svg width="46" height="45" viewBox="0 0 46 45" fill="none" xmlns="http://www.w3.org/2000/svg">
<rect width="46" height="45" rx="2" transform="matrix(-1 0 0 1 46 0)" fill="#D111A7" fill-opacity="0.1"/>
<path fill-rule="evenodd" clip-rule="evenodd" d="M22.5186 10C28.2075 10 32.0001 14.7909 32.0001 19.5819C32.0001 23.4146 30.1038 27.2474 26.3112 28.2056V35.8711L22.5186 32.0383L18.726 35.8711V28.2056C15.8816 27.2474 13.0371 23.4146 13.0371 19.5819C13.0371 14.7909 17.7778 10 22.5186 10Z" fill="#D111A7"/>
<path fill-rule="evenodd" clip-rule="evenodd" d="M22.5189 15.7495L23.467 18.624H26.3115L24.4152 20.5404L25.3633 23.4149L22.5189 21.4986L19.6745 23.4149L20.6226 20.5404L18.7263 18.624H21.5707L22.5189 15.7495Z" fill="white"/>
</svg>
