<svg width="46" height="45" viewBox="0 0 46 45" fill="none" xmlns="http://www.w3.org/2000/svg">
<rect width="46" height="45" rx="2" transform="matrix(-1 0 0 1 46 0)" fill="#F29200" fill-opacity="0.1"/>
<path d="M23.3763 15.6515H21.842V11H23.3763V15.6515ZM21.842 29.8127H23.3763V34.4642H21.842V29.8127ZM34.2183 21.9569V23.5074H29.6156V21.9569H34.2183ZM15.6028 23.5074H11V21.9569H15.6028V23.5074ZM28.0813 18.339L26.9562 17.202L30.2293 13.8943L31.3544 14.9279L28.0813 18.339ZM17.137 27.1252L18.2621 28.2622L14.8868 31.57L13.8639 30.4329L17.137 27.1252ZM28.0813 27.1252L31.3544 30.4329L30.2293 31.57L26.9562 28.2622L28.0813 27.1252ZM17.137 18.339L13.8639 14.9279L14.8868 13.8943L18.2621 17.202L17.137 18.339Z" fill="#F29200"/>
<path fill-rule="evenodd" clip-rule="evenodd" d="M17.2393 22.6802C17.2393 23.5071 17.3415 24.2307 17.6484 24.8509C17.9552 25.4711 18.3644 26.0913 18.7735 26.6081C19.2849 27.0215 19.7963 27.435 20.5123 27.7451C21.126 28.0552 21.842 28.1586 22.558 28.1586C23.3763 28.1586 24.0922 28.0552 24.7059 27.7451C25.3196 27.435 25.9333 27.0215 26.4448 26.6081C26.8539 26.0913 27.263 25.4711 27.5699 24.8509C27.8767 24.2307 27.979 23.5071 27.979 22.6802C27.979 21.9566 27.8767 21.2331 27.5699 20.6129C27.263 19.8893 26.8539 19.3725 26.4448 18.8557C25.9333 18.4422 25.3196 18.0287 24.7059 17.7186C24.0922 17.4085 23.3763 17.3052 22.558 17.3052C21.842 17.3052 21.126 17.4085 20.5123 17.7186C19.7963 18.0287 19.2849 18.4422 18.7735 18.8557C18.3644 19.3725 17.9552 19.8893 17.6484 20.6129C17.3415 21.2331 17.2393 21.9566 17.2393 22.6802Z" fill="#F29200"/>
</svg>
