<svg width="46" height="45" viewBox="0 0 46 45" fill="none" xmlns="http://www.w3.org/2000/svg">
<rect width="46" height="45" rx="2" transform="matrix(-1 0 0 1 46 0)" fill="#731EC9" fill-opacity="0.1"/>
<path fill-rule="evenodd" clip-rule="evenodd" d="M13 15.3837C13 15.3837 19.3559 15.3837 22.9879 11C22.9879 11 26.8216 15.0778 32.9757 16.0973C32.9757 16.0973 33.9846 29.4522 22.9879 34.2437C22.9879 34.2437 13 32.3067 13 15.3837ZM18.0444 22.4179C17.7417 22.214 17.7417 21.7043 18.0444 21.3985C18.347 21.0926 18.7506 21.0926 19.0533 21.3985L21.7772 24.0491L27.0234 19.5635C27.326 19.2576 27.7296 19.3596 28.0323 19.6654C28.3349 19.9712 28.234 20.379 27.9314 20.6849L22.2817 25.6802C21.979 25.8841 21.5754 25.8841 21.2728 25.5783L18.0444 22.4179Z" fill="#731EC9"/>
</svg>
