<svg width="46" height="45" viewBox="0 0 46 45" fill="none" xmlns="http://www.w3.org/2000/svg">
<rect width="46" height="45" rx="2" transform="matrix(-1 0 0 1 46 0)" fill="#3BAA34" fill-opacity="0.1"/>
<path fill-rule="evenodd" clip-rule="evenodd" d="M15.4894 21.5648C15.4014 18.2733 19.1866 14.448 22.4437 14.537V16.4051H24.5563V14.537C27.7254 14.448 31.5986 18.2733 31.5106 21.5648H29.662V23.6998H31.5106C31.5986 26.9024 27.7254 30.7277 24.5563 30.7277V28.7706H22.4437V30.7277C19.1866 30.7277 15.4014 26.9914 15.4894 23.6998H17.338V21.5648H15.4894ZM11 23.6998L13.1127 23.7888C14.257 29.2154 16.8979 31.9731 22.4437 33.1296V35.2646H24.5563L24.6444 33.1296C28.5176 32.24 31.0704 30.6387 32.743 27.2582C33.3592 26.0128 33.5352 25.3011 33.8873 23.6998H36V21.5648L33.8873 21.4758C32.831 16.0493 29.9261 13.2915 24.5563 12.135V10H22.4437L22.3556 12.135C16.8979 13.2915 14.257 16.0493 13.1127 21.4758L11 21.5648V23.6998Z" fill="#3BAA34"/>
<path d="M23.4998 26.4419C25.5818 26.4419 27.2697 24.7362 27.2697 22.6321C27.2697 20.528 25.5818 18.8223 23.4998 18.8223C21.4178 18.8223 19.73 20.528 19.73 22.6321C19.73 24.7362 21.4178 26.4419 23.4998 26.4419Z" fill="#3BAA34"/>
</svg>
