<svg width="46" height="45" viewBox="0 0 46 45" fill="none" xmlns="http://www.w3.org/2000/svg">
<rect width="46" height="45" rx="2" transform="matrix(-1 0 0 1 46 0)" fill="#FC13AD" fill-opacity="0.1"/>
<path fill-rule="evenodd" clip-rule="evenodd" d="M16.795 25.5121C16.2417 25.5121 15.9651 25.3257 15.504 25.0462C14.5819 24.2075 14.9507 22.0642 16.7028 22.0642C18.0859 22.0642 19.008 23.7416 17.9937 24.953C17.7171 25.2326 17.256 25.5121 16.795 25.5121ZM16.2417 18.5231C16.2417 18.0572 16.5183 17.5912 16.7028 17.4048C17.6249 16.2866 19.6535 16.7525 19.6535 18.6163C19.6535 19.455 18.9158 20.2936 17.9015 20.2936C17.0716 20.2936 16.2417 19.455 16.2417 18.5231ZM23.2497 18.0572C22.2354 18.0572 21.4977 17.3117 21.4977 16.473V16.1002C21.4977 15.4479 22.3276 14.6092 22.9731 14.6092C23.5264 14.6092 23.9874 14.6092 24.4485 15.1684C25.4628 16.2866 24.6329 18.0572 23.2497 18.0572ZM12 22.5301C12 25.1394 12.8299 27.6554 14.2131 29.5192C14.8585 30.3578 15.6884 31.1965 16.8872 30.451C17.1638 30.1715 17.256 29.9851 17.5327 29.7055C18.3626 28.3077 19.1924 26.3508 21.8666 26.3508C21.9588 25.9781 21.9588 25.5121 22.1432 24.8598C22.2354 24.3007 22.4198 23.9279 22.6043 23.462C23.2497 22.1574 23.9874 21.6915 24.7251 20.946L29.6123 16.5662C30.6266 15.5411 29.7967 14.2365 28.8746 13.5842C27.6758 12.6523 25.1862 12 23.0653 12C21.0367 12 19.7457 12.1864 18.0859 13.0251C17.1638 13.491 16.8872 13.6774 16.0573 14.2365C15.1352 14.982 13.9364 16.473 13.3832 17.4048C12.6455 18.8958 12 20.5732 12 22.5301Z" fill="#FC13AD"/>
<path fill-rule="evenodd" clip-rule="evenodd" d="M23.0649 26.6308C23.0649 26.724 24.3559 27.8423 24.5403 27.8423C24.9092 27.8423 26.0157 27.2832 26.3845 27.0968C27.03 26.8172 27.3989 26.3513 27.7677 25.8853C27.9521 25.6058 28.1365 25.3262 28.321 25.0467L29.7963 22.6238C30.4418 21.5055 30.9951 20.3873 31.7328 19.3622C31.825 19.0826 33.577 16.1938 33.577 15.9142C33.577 15.3551 32.9315 15.1687 32.5627 15.6347C32.3783 15.7279 32.3783 15.8211 32.1938 15.9142L29.0587 18.7099C28.9664 18.8031 28.8742 18.8963 28.782 18.9894L26.0157 21.5987C25.4624 22.1578 25.0014 22.3442 24.2637 23.1829C24.1715 23.3693 24.0793 23.3693 23.9871 23.5556C23.526 24.208 23.0649 26.0717 23.0649 26.6308Z" fill="#FC13AD"/>
<path fill-rule="evenodd" clip-rule="evenodd" d="M23.1572 33.8057C23.9871 33.8057 25.9236 33.4329 26.6613 33.1534C28.3211 32.5011 29.9809 31.2896 30.3497 29.4259C30.6263 28.4009 30.4419 27.7485 30.1653 26.7235C30.0731 26.3508 29.7042 25.4189 29.7042 25.0461C29.5198 25.2325 29.4276 25.4189 29.3354 25.6984C28.6899 27.0031 27.3989 28.494 25.8314 28.7736C24.7248 29.0532 24.9092 28.494 24.817 29.7055C24.817 30.1714 24.6326 30.9169 24.5404 31.3828C24.0793 32.967 23.4339 33.2465 23.1572 33.8057Z" fill="#FC13AD"/>
<path fill-rule="evenodd" clip-rule="evenodd" d="M16.3337 32.0355C16.0571 32.0355 15.596 31.6628 15.4116 31.5696C15.5038 32.1287 16.2415 32.8743 16.7026 33.1538C17.6247 33.713 18.5468 33.8062 19.6533 33.8062C20.6677 33.8062 21.9586 33.1538 22.6963 32.3151C23.3418 31.5696 23.895 29.6126 23.5262 29.0535L22.3275 27.9352C21.9586 27.5624 21.9586 27.6556 21.4976 27.6556C20.4832 27.6556 19.8378 28.3079 19.3767 29.0535C18.9156 29.7058 18.5468 30.7309 17.9935 31.29C17.6247 31.6628 17.0714 32.0355 16.3337 32.0355Z" fill="#FC13AD"/>
</svg>
