<svg width="46" height="45" viewBox="0 0 46 45" fill="none" xmlns="http://www.w3.org/2000/svg">
<rect width="46" height="45" rx="2" transform="matrix(-1 0 0 1 46 0)" fill="#F51D23" fill-opacity="0.1"/>
<path fill-rule="evenodd" clip-rule="evenodd" d="M14.6387 19.7305L31.3403 16.636C32.5466 16.4485 33.5672 15.6983 33.1961 14.2917C32.9177 13.354 31.9898 12.7914 31.062 13.0727C30.9692 13.0727 30.9692 13.0727 30.9692 13.0727L14.6387 19.7305Z" fill="#F51D23"/>
<path fill-rule="evenodd" clip-rule="evenodd" d="M12.3193 25.7317L29.2993 24.6064C30.5055 24.5127 31.619 23.8563 31.4334 22.4497C31.2478 21.4183 30.32 20.7619 29.3921 20.9494H29.2993L12.3193 25.7317Z" fill="#F51D23"/>
<path fill-rule="evenodd" clip-rule="evenodd" d="M10 31.7323L26.98 32.2012C28.1862 32.2012 29.4852 31.6386 29.3925 30.232C29.2997 29.2943 28.4646 28.5442 27.4439 28.5442L27 28.6646L10 31.7323Z" fill="#F51D23"/>
</svg>
